<svg xmlns="http://www.w3.org/2000/svg" viewBox="0 0 100 100">
  <rect width="100" height="100" fill="#000000"/>
  <path d="M50 20c-8 0-15 4-18 10-2-1-4-1-6 0-3 2-4 6-3 9 0 0-3 2-3 6s2 6 4 7c0 3 1 6 3 8 2 3 5 5 9 5h2c3 4 8 7 13 7s10-3 13-7h2c4 0 7-2 9-5 2-2 3-5 3-8 2-1 4-3 4-7s-3-6-3-6c1-3 0-7-3-9-2-1-4-1-6 0-3-6-10-10-18-10zm-8 15c2 0 3 1 3 3s-1 3-3 3-3-1-3-3 1-3 3-3zm16 0c2 0 3 1 3 3s-1 3-3 3-3-1-3-3 1-3 3-3zm-13 15c0 2 2 4 5 4s5-2 5-4h-10z" fill="#FFD600" stroke="#FFD600" stroke-width="1"/>
</svg>